<?xml version="1.0" encoding="UTF-8"?>
<svg width="77px" height="142px" viewBox="0 0 77 142" version="1.1" xmlns="http://www.w3.org/2000/svg" xmlns:xlink="http://www.w3.org/1999/xlink">
    <!-- Generator: Sketch 53 (72520) - https://sketchapp.com -->
    <title>iwatch</title>
    <desc>Created with Sketch.</desc>
    <defs>
        <polygon id="path-1" points="0.3 0.6 68.7 0.6 68.7 34.2 0.3 34.2"></polygon>
        <polygon id="path-3" points="0.3 0.6 68.7 0.6 68.7 34.2 0.3 34.2"></polygon>
        <polygon id="path-5" points="0.3 0.6 68.7 0.6 68.7 34.2 0.3 34.2"></polygon>
        <path d="M13.4,2.9 C12.6,3.1 12,3.8 12,4.7 C11.5,10.4 11.3,15.9 11.3,17.4 C11.3,23.7 6.4,32.1 0.9,34.3 L0.6,35.5 L26.6,35.5 L52.6,35.5 L52.3,34.3 C46.8,32.1 41.9,23.7 41.9,17.4 C41.9,16 41.7,10.6 41.2,5 C41.1,4.2 40.6,3.5 39.8,3.2 C34.2,1.6 32.4,0.7 26.3,0.7 C20.3,0.6 18.7,1.4 13.4,2.9 L13.4,2.9 Z" id="path-7"></path>
        <rect id="path-9" x="0" y="0" width="69" height="34"></rect>
        <rect id="path-11" x="0" y="0" width="69" height="34"></rect>
        <rect id="path-13" x="0" y="0" width="69" height="34"></rect>
        <path d="M13.4,33.3 C12.6,33.1 12,32.4 12,31.5 C11.5,25.8 11.3,20.3 11.3,18.8 C11.3,12.5 6.4,4.2 0.9,2 L0.6,0.9 L26.6,0.9 L52.6,0.9 L52.3,2 C46.8,4.2 41.9,12.5 41.9,18.8 C41.9,20.2 41.7,25.6 41.2,31.2 C41.1,32 40.6,32.7 39.8,33 C34.2,34.6 32.4,35.5 26.3,35.5 C20.3,35.6 18.7,34.8 13.4,33.3 L13.4,33.3 Z" id="path-15"></path>
        <rect id="path-17" x="0" y="0" width="53" height="57"></rect>
        <rect id="path-19" x="0" y="0" width="53" height="57"></rect>
        <rect id="path-21" x="0" y="0" width="53" height="57"></rect>
    </defs>
    <g id="Page-1" stroke="none" stroke-width="1" fill="none" fill-rule="evenodd">
        <g id="Illo_Exploration" transform="translate(-670.000000, -228.000000)">
            <g id="Group" transform="translate(270.000000, 227.000000)">
                <g id="iwatch" transform="translate(401.000000, 1.000000)">
                    <path d="M73,62.4 L23,62.4 L23,50.4 L73,50.4 C73.6,50.4 74,50.8 74,51.4 L74,61.4 C74,61.9 73.6,62.4 73,62.4 L73,62.4 Z" id="XMLID_471_" stroke="#1485E0" stroke-width="3.4641"></path>
                    <g id="XMLID_416_">
                        <g id="XMLID_417_">
                            <g id="XMLID_427_-Clipped">
                                <mask id="mask-2" fill="white">
                                    <use xlink:href="#path-1"></use>
                                </mask>
                                <g id="XMLID_418_"></g>
                            </g>
                            <g id="XMLID_426_-Clipped">
                                <mask id="mask-4" fill="white">
                                    <use xlink:href="#path-3"></use>
                                </mask>
                                <g id="XMLID_418_"></g>
                                <path d="M6,37.7 L63,37.7 C56.9,33.6 55.9,22.4 55.9,22.4 L53.8,7.1 C53.7,6.3 53.1,5.6 52.3,5.4 C46.6,3.9 40.6,3 34.5,3 C28.4,3 22.4,3.8 16.7,5.4 C15.9,5.6 15.3,6.3 15.2,7.1 L13.1,22.4 C13.1,22.4 12.1,33.5 6,37.7 L6,37.7 Z" id="XMLID_426_" stroke="#1485E0" stroke-width="4.0714" fill="#C4E1F7" mask="url(#mask-4)"></path>
                            </g>
                            <g id="XMLID_419_-Clipped">
                                <mask id="mask-6" fill="white">
                                    <use xlink:href="#path-5"></use>
                                </mask>
                                <g id="XMLID_418_"></g>
                                <g id="XMLID_419_" mask="url(#mask-6)">
                                    <g transform="translate(8.000000, 3.000000)" id="XMLID_421_-Clipped">
                                        <g>
                                            <mask id="mask-8" fill="white">
                                                <use xlink:href="#path-7"></use>
                                            </mask>
                                            <g id="XMLID_420_"></g>
                                            <g id="XMLID_421_" mask="url(#mask-8)" stroke="#1485E0">
                                                <g transform="translate(4.000000, 8.000000)">
                                                    <path d="M0,12.5 L44,12.5" id="XMLID_425_"></path>
                                                    <path d="M0,18.5 L44,18.5" id="XMLID_424_"></path>
                                                    <path d="M5,6.5 L39,6.5" id="XMLID_423_"></path>
                                                    <path d="M4,0.5 L40,0.5" id="XMLID_422_"></path>
                                                </g>
                                            </g>
                                        </g>
                                    </g>
                                </g>
                            </g>
                        </g>
                    </g>
                    <g id="XMLID_403_" transform="translate(0.000000, 108.000000)">
                        <g id="XMLID_404_">
                            <g id="XMLID_415_-Clipped">
                                <mask id="mask-10" fill="white">
                                    <use xlink:href="#path-9"></use>
                                </mask>
                                <g id="XMLID_405_"></g>
                            </g>
                            <g id="XMLID_413_-Clipped">
                                <mask id="mask-12" fill="white">
                                    <use xlink:href="#path-11"></use>
                                </mask>
                                <g id="XMLID_405_"></g>
                                <g id="XMLID_413_" mask="url(#mask-12)" fill="#C4E1F7" stroke="#1485E0" stroke-width="4">
                                    <g transform="translate(6.000000, -3.000000)" id="XMLID_414_">
                                        <path d="M0,0 L57,0 C50.9,4 49.9,15 49.9,15 L47.8,30.1 C47.7,30.9 47.1,31.5 46.3,31.7 C40.6,33.2 34.6,34.1 28.5,34.1 C22.3,34.1 16.4,33.3 10.7,31.7 C9.9,31.5 9.3,30.8 9.2,30 L7.1,15 C7.1,15 6.1,4 0,0 L0,0 Z"></path>
                                    </g>
                                </g>
                            </g>
                            <g id="XMLID_406_-Clipped">
                                <mask id="mask-14" fill="white">
                                    <use xlink:href="#path-13"></use>
                                </mask>
                                <g id="XMLID_405_"></g>
                                <g id="XMLID_406_" mask="url(#mask-14)">
                                    <g transform="translate(8.000000, -5.000000)" id="XMLID_408_-Clipped">
                                        <g>
                                            <mask id="mask-16" fill="white">
                                                <use xlink:href="#path-15"></use>
                                            </mask>
                                            <g id="XMLID_407_"></g>
                                            <g id="XMLID_408_" mask="url(#mask-16)" stroke="#1485E0">
                                                <g transform="translate(4.000000, 10.000000)">
                                                    <path d="M0,6.5 L44,6.5" id="XMLID_412_"></path>
                                                    <path d="M0,0.5 L44,0.5" id="XMLID_411_"></path>
                                                    <path d="M5,12.5 L39,12.5" id="XMLID_410_"></path>
                                                    <path d="M4,18.5 L40,18.5" id="XMLID_409_"></path>
                                                </g>
                                            </g>
                                        </g>
                                    </g>
                                </g>
                            </g>
                        </g>
                    </g>
                    <path d="M56,107.4 L13,107.4 C6.4,107.4 1,102 1,95.4 L1,46.4 C1,39.8 6.4,34.4 13,34.4 L56,34.4 C62.6,34.4 68,39.8 68,46.4 L68,95.4 C68,102 62.6,107.4 56,107.4 L56,107.4 Z" id="XMLID_402_" stroke="#1485E0" stroke-width="4" fill="#C4E1F7"></path>
                    <g id="XMLID_312_" transform="translate(8.000000, 43.000000)">
                        <g id="XMLID_401_-Clipped">
                            <mask id="mask-18" fill="white">
                                <use xlink:href="#path-17"></use>
                            </mask>
                            <g id="XMLID_314_"></g>
                            <rect id="XMLID_401_" stroke="#1485E0" stroke-width="2" fill="#FFFFFF" mask="url(#mask-18)" x="1" y="1" width="51" height="55"></rect>
                        </g>
                        <g id="XMLID_315_-Clipped">
                            <mask id="mask-20" fill="white">
                                <use xlink:href="#path-19"></use>
                            </mask>
                            <g id="XMLID_314_"></g>
                            <path d="M32,24 L20,24 L20,22 L32,22 L32,24 L32,24 Z M28,30 L20,30 L20,28 L28,28 L28,30 L28,30 Z M20,25 L32,25 L32,27 L20,27 L20,25 L20,25 Z M16,19.6 L16,37.1 L20.5,34 L34,34 C35.1,34 36,32.7 36,31.6 L36,19.6 C36,18.5 35.1,18 34,18 L18,18 C16.9,18 16,18.4 16,19.6 L16,19.6 Z" id="XMLID_315_" fill="#1485E0" mask="url(#mask-20)"></path>
                        </g>
                        <g id="light_2_-Clipped">
                            <mask id="mask-22" fill="white">
                                <use xlink:href="#path-21"></use>
                            </mask>
                            <g id="XMLID_314_"></g>
                            <polygon id="light_2_" fill="#FFFFFF" opacity="0.44" mask="url(#mask-22)" points="-6 115 -125 115 -125 -59 58 -59"></polygon>
                        </g>
                    </g>
                </g>
            </g>
        </g>
    </g>
</svg>