<?xml version="1.0" encoding="UTF-8" standalone="no"?>
<svg width="370px" height="132px" viewBox="0 0 370 132" version="1.1" xmlns="http://www.w3.org/2000/svg" xmlns:xlink="http://www.w3.org/1999/xlink">
    <!-- Generator: Sketch 50.2 (55047) - http://www.bohemiancoding.com/sketch -->
    <title>Logo</title>
    <desc>Created with Sketch.</desc>
    <defs></defs>
    <g id="Logo" stroke="none" stroke-width="1" fill="none" fill-rule="evenodd">
        <path d="M35.8,19.8 C34.8399952,18.9466624 33.6400072,18.2933356 32.2,17.84 C30.7599928,17.3866644 29.3466736,17.16 27.96,17.16 C26.4133256,17.16 25.0000064,17.4399972 23.72,18 C22.4399936,18.5600028 21.333338,19.3333284 20.4,20.32 C19.466662,21.3066716 18.733336,22.4933264 18.2,23.88 C17.666664,25.2666736 17.4,26.759992 17.4,28.36 C17.4,29.960008 17.6933304,31.4533264 18.28,32.84 C18.8666696,34.2266736 19.6666616,35.4133284 20.68,36.4 C21.6933384,37.3866716 22.8799932,38.1599972 24.24,38.72 C25.6000068,39.2800028 27.0533256,39.56 28.6,39.56 C30.4133424,39.56 32.0666592,39.1733372 33.56,38.4 C35.0533408,37.6266628 36.333328,36.57334 37.4,35.24 L32.6,35.24 L32.6,24.04 L53.16,24.04 L53.16,41.8 C51.9333272,43.9866776 50.4666752,45.9733244 48.76,47.76 C47.0533248,49.5466756 45.1466772,51.0799936 43.04,52.36 C40.9333228,53.6400064 38.6533456,54.6266632 36.2,55.32 C33.7466544,56.0133368 31.2133464,56.36 28.6,56.36 C24.7599808,56.36 21.1333504,55.6400072 17.72,54.2 C14.3066496,52.7599928 11.333346,50.7866792 8.8,48.28 C6.266654,45.7733208 4.266674,42.8133504 2.8,39.4 C1.333326,35.9866496 0.6,32.3066864 0.6,28.36 C0.6,24.5199808 1.2933264,20.8933504 2.68,17.48 C4.0666736,14.0666496 5.9733212,11.093346 8.4,8.56 C10.8266788,6.026654 13.70665,4.026674 17.04,2.56 C20.37335,1.093326 23.9599808,0.36 27.8,0.36 C30.7866816,0.36 33.3733224,0.6533304 35.56,1.24 C37.7466776,1.8266696 39.5866592,2.4933296 41.08,3.24 C42.8400088,4.0933376 44.3066608,5.0266616 45.48,6.04 L35.8,19.8 Z M36.6,9.48 C35.9066632,9.1599984 35.1333376,8.8933344 34.28,8.68 C33.5333296,8.4666656 32.6533384,8.2800008 31.64,8.12 C30.6266616,7.9599992 29.5066728,7.88 28.28,7.88 C25.4533192,7.88 22.8133456,8.3866616 20.36,9.4 C17.9066544,10.4133384 15.7733424,11.8133244 13.96,13.6 C12.1466576,15.3866756 10.7200052,17.5333208 9.68,20.04 C8.6399948,22.5466792 8.12,25.3199848 8.12,28.36 C8.12,31.4000152 8.653328,34.1733208 9.72,36.68 C10.786672,39.1866792 12.253324,41.3333244 14.12,43.12 C15.986676,44.9066756 18.1599876,46.3066616 20.64,47.32 C23.1200124,48.3333384 25.7733192,48.84 28.6,48.84 C32.2800184,48.84 35.6133184,47.973342 38.6,46.24 C41.5866816,44.506658 44.013324,42.2000144 45.88,39.32 L45.88,28.84 L37.4,28.84 L37.4,30.76 L43.8,30.76 L43.8,38.76 C42.1466584,41.2133456 40.0000132,43.1599928 37.36,44.6 C34.7199868,46.0400072 31.800016,46.76 28.6,46.76 C26.0399872,46.76 23.6533444,46.3200044 21.44,45.44 C19.2266556,44.5599956 17.2800084,43.3066748 15.6,41.68 C13.9199916,40.0533252 12.6000048,38.106678 11.64,35.84 C10.6799952,33.573322 10.2,31.0800136 10.2,28.36 C10.2,25.6399864 10.666662,23.146678 11.6,20.88 C12.533338,18.613322 13.8133252,16.6666748 15.44,15.04 C17.0666748,13.4133252 18.9733224,12.1600044 21.16,11.28 C23.3466776,10.3999956 25.7199872,9.96 28.28,9.96 C29.2400048,9.96 30.1466624,10.0399992 31,10.2 C31.8533376,10.3600008 32.5999968,10.5199992 33.24,10.68 C33.9866704,10.8933344 34.6799968,11.1066656 35.32,11.32 L36.6,9.48 Z M56.44,22.984 L67.288,22.984 L67.288,55 L56.44,55 L56.44,22.984 Z M70.648,22.984 L81.304,22.984 L81.304,46.6 L90.136,46.6 L90.136,55 L70.648,55 L70.648,22.984 Z M91.816,22.984 L110.68,22.984 L110.68,31.384 L102.04,31.384 L102.04,34.936 L110.536,34.936 L110.536,42.904 L102.04,42.904 L102.04,46.6 L111.016,46.6 L111.016,55 L91.816,55 L91.816,22.984 Z M113.032,45.064 C113.736004,45.2880011 114.471996,45.4639994 115.24,45.592 C115.880003,45.7520008 116.607996,45.8799995 117.424,45.976 C118.240004,46.0720005 119.063996,46.12 119.896,46.12 C121.368007,46.12 122.104,45.5760054 122.104,44.488 C122.104,44.0719979 121.880002,43.6480022 121.432,43.216 C120.983998,42.7839978 120.416003,42.3040026 119.728,41.776 C119.039997,41.2479974 118.304004,40.6640032 117.52,40.024 C116.735996,39.3839968 116.000003,38.6480042 115.312,37.816 C114.623997,36.9839958 114.056002,36.0480052 113.608,35.008 C113.159998,33.9679948 112.936,32.7760067 112.936,31.432 C112.936,29.9279925 113.207997,28.6000058 113.752,27.448 C114.296003,26.2959942 115.047995,25.3360038 116.008,24.568 C116.968005,23.7999962 118.095994,23.216002 119.392,22.816 C120.688006,22.415998 122.071993,22.216 123.544,22.216 C124.312004,22.216 125.079996,22.2559996 125.848,22.336 C126.616004,22.4160004 127.303997,22.4879997 127.912,22.552 C128.616004,22.6480005 129.303997,22.7439995 129.976,22.84 L129.976,31.816 C129.719999,31.7839998 129.432002,31.7520002 129.112,31.72 C128.855999,31.6879998 128.568002,31.6560002 128.248,31.624 C127.927998,31.5919998 127.592002,31.576 127.24,31.576 C127.047999,31.576 126.808001,31.5839999 126.52,31.6 C126.231999,31.6160001 125.960001,31.6559997 125.704,31.72 C125.447999,31.7840003 125.224001,31.8959992 125.032,32.056 C124.839999,32.2160008 124.744,32.4399986 124.744,32.728 C124.744,32.9840013 124.959998,33.3039981 125.392,33.688 C125.824002,34.0720019 126.351997,34.5199974 126.976,35.032 C127.600003,35.5440026 128.287996,36.1359966 129.04,36.808 C129.792004,37.4800034 130.479997,38.2479957 131.104,39.112 C131.728003,39.9760043 132.255998,40.9519946 132.688,42.04 C133.120002,43.1280054 133.336,44.3439933 133.336,45.688 C133.336,47.096007 133.112002,48.4159938 132.664,49.648 C132.215998,50.8800062 131.520005,51.9519954 130.576,52.864 C129.631995,53.7760046 128.424007,54.4959974 126.952,55.024 C125.479993,55.5520026 123.73601,55.816 121.72,55.816 C120.503994,55.816 119.376005,55.7600006 118.336,55.648 C117.295995,55.5359994 116.376004,55.4000008 115.576,55.24 C114.647995,55.0799992 113.800004,54.8880011 113.032,54.664 L113.032,45.064 Z M141.816,1.64 L159.896,1.64 L166.056,20.28 L172.216,1.64 L183.896,1.64 L190.056,20.28 L196.216,1.64 L214.296,1.64 L196.696,55 L183.416,55 L178.056,38.84 L172.696,55 L159.416,55 L141.816,1.64 Z M167.416,48.6 L178.056,15.08 L188.696,48.6 L190.696,48.6 L204.056,8.04 L201.896,8.04 L189.736,44.92 L178.056,8.04 L166.376,44.92 L154.216,8.04 L152.056,8.04 L165.416,48.6 L167.416,48.6 Z M214.376,22.984 L225.224,22.984 L225.224,55 L214.376,55 L214.376,22.984 Z M228.584,22.984 L239.24,22.984 L239.24,46.6 L248.072,46.6 L248.072,55 L228.584,55 L228.584,22.984 Z M249.752,22.984 L258.2,22.984 L266.552,35.272 L274.856,22.984 L283.304,22.984 L283.304,55 L273.08,55 L273.08,43.48 L266.552,53.08 L259.976,43.48 L259.976,55 L249.752,55 L249.752,22.984 Z M285.944,39.016 C285.944,36.7119885 286.383996,34.5360102 287.264,32.488 C288.144004,30.4399898 289.343992,28.6560076 290.864,27.136 C292.384008,25.6159924 294.16799,24.4160044 296.216,23.536 C298.26401,22.6559956 300.439988,22.216 302.744,22.216 C305.048012,22.216 307.22399,22.6559956 309.272,23.536 C311.32001,24.4160044 313.103992,25.6159924 314.624,27.136 C316.144008,28.6560076 317.343996,30.4399898 318.224,32.488 C319.104004,34.5360102 319.544,36.7119885 319.544,39.016 C319.544,41.3200115 319.104004,43.4959898 318.224,45.544 C317.343996,47.5920102 316.144008,49.3759924 314.624,50.896 C313.103992,52.4160076 311.32001,53.6159956 309.272,54.496 C307.22399,55.3760044 305.048012,55.816 302.744,55.816 C300.439988,55.816 298.26401,55.3760044 296.216,54.496 C294.16799,53.6159956 292.384008,52.4160076 290.864,50.896 C289.343992,49.3759924 288.144004,47.5920102 287.264,45.544 C286.383996,43.4959898 285.944,41.3200115 285.944,39.016 Z M296.024,39.016 C296.024,39.9440046 296.199998,40.8159959 296.552,41.632 C296.904002,42.4480041 297.383997,43.159997 297.992,43.768 C298.600003,44.376003 299.311996,44.8559982 300.128,45.208 C300.944004,45.5600018 301.815995,45.736 302.744,45.736 C303.672005,45.736 304.543996,45.5600018 305.36,45.208 C306.176004,44.8559982 306.887997,44.376003 307.496,43.768 C308.104003,43.159997 308.583998,42.4480041 308.936,41.632 C309.288002,40.8159959 309.464,39.9440046 309.464,39.016 C309.464,38.0879954 309.288002,37.2160041 308.936,36.4 C308.583998,35.5839959 308.104003,34.872003 307.496,34.264 C306.887997,33.655997 306.176004,33.1760018 305.36,32.824 C304.543996,32.4719982 303.672005,32.296 302.744,32.296 C301.815995,32.296 300.944004,32.4719982 300.128,32.824 C299.311996,33.1760018 298.600003,33.655997 297.992,34.264 C297.383997,34.872003 296.904002,35.5839959 296.552,36.4 C296.199998,37.2160041 296.024,38.0879954 296.024,39.016 Z M322.184,22.984 L333.224,22.984 C335.27201,22.984 337.167991,23.2559973 338.912,23.8 C340.656009,24.3440027 342.167994,25.1439947 343.448,26.2 C344.728006,27.2560053 345.727996,28.5599922 346.448,30.112 C347.168004,31.6640078 347.528,33.4479899 347.528,35.464 C347.528,37.064008 347.304002,38.4239944 346.856,39.544 C346.407998,40.6640056 345.912003,41.5919963 345.368,42.328 C344.727997,43.1600042 344.008004,43.8639971 343.208,44.44 L349.208,55 L337.208,55 L332.408,46.888 L332.408,55 L322.184,55 L322.184,22.984 Z M332.408,38.728 L332.936,38.728 C334.152006,38.728 335.183996,38.4560027 336.032,37.912 C336.880004,37.3679973 337.304,36.4560064 337.304,35.176 C337.304,33.8959936 336.880004,32.9840027 336.032,32.44 C335.183996,31.8959973 334.152006,31.624 332.936,31.624 L332.408,31.624 L332.408,38.728 Z M350.168,22.984 L369.032,22.984 L369.032,31.384 L360.392,31.384 L360.392,34.936 L368.888,34.936 L368.888,42.904 L360.392,42.904 L360.392,46.6 L369.368,46.6 L369.368,55 L350.168,55 L350.168,22.984 Z" id="Giles-Wilmore" fill="#000000"></path>
        <path d="M272.84375,69.375 L280.734375,69.375 L280.734375,108.359375 C280.734375,114.036487 281.287755,117.845042 282.394531,119.785156 C283.501308,121.72527 285.226551,123.20312 287.570312,124.21875 C289.914074,125.23438 292.531236,125.742188 295.421875,125.742188 C298.208347,125.742188 300.675771,125.23438 302.824219,124.21875 C304.972667,123.20312 306.574213,121.595063 307.628906,119.394531 C308.683599,117.193999 309.210938,112.591181 309.210938,105.585938 L309.210938,69.375 L316.476562,69.375 L316.476562,107.617188 C316.476562,114.700556 315.662769,119.674465 314.035156,122.539062 C312.407544,125.40366 310.057307,127.669263 306.984375,129.335938 C303.911443,131.002612 300.044294,131.835938 295.382812,131.835938 C291.059874,131.835938 287.10158,131.171882 283.507812,129.84375 C279.914045,128.515618 277.23829,126.451837 275.480469,123.652344 C273.722647,120.852851 272.84375,116.106804 272.84375,109.414062 L272.84375,69.375 Z M330.5,130 L322.53125,130 L341.945312,99.21875 L324.054688,69.375 L332.6875,69.375 L346.398438,92.265625 L360.96875,69.375 L368.820312,69.375 L350.226562,98.59375 L368.898438,130 L360.421875,130 L345.8125,105.585938 L330.5,130 Z" id="UX" fill="#000000"></path>
    </g>
</svg>