<?xml version="1.0" encoding="UTF-8" standalone="no"?>
<svg width="141px" height="51px" viewBox="0 0 141 51" version="1.1" xmlns="http://www.w3.org/2000/svg" xmlns:xlink="http://www.w3.org/1999/xlink">
    <!-- Generator: Sketch 50.2 (55047) - http://www.bohemiancoding.com/sketch -->
    <title>Logo</title>
    <desc>Created with Sketch.</desc>
    <defs></defs>
    <g id="Logo" stroke="none" stroke-width="1" fill="none" fill-rule="evenodd">
        <g id="Group" fill="#000000">
            <path d="M13.3647505,7.53032967 C13.0002555,7.19977857 12.5446435,6.94670417 11.997901,6.7710989 C11.4511585,6.59549363 10.9145489,6.50769231 10.3880561,6.50769231 C9.80081409,6.50769231 9.26420447,6.61615276 8.77821112,6.83307692 C8.29221776,7.05000108 7.87204231,7.34955853 7.51767215,7.73175824 C7.16330199,8.11395795 6.88487248,8.57362369 6.68237524,9.11076923 C6.47987801,9.64791477 6.37863091,10.2263705 6.37863091,10.8461538 C6.37863091,11.4659372 6.49000272,12.0443929 6.71274968,12.5815385 C6.93549663,13.118684 7.23923792,13.5783497 7.62398266,13.9605495 C8.00872741,14.3427492 8.45927699,14.6423066 8.97564493,14.8592308 C9.49201287,15.0761549 10.0438096,15.1846154 10.6310515,15.1846154 C11.3195421,15.1846154 11.9472741,15.0348367 12.5142664,14.7352747 C13.0812586,14.4357128 13.5672447,14.0276949 13.9722391,13.5112088 L12.1497732,13.5112088 L12.1497732,9.17274725 L19.9560024,9.17274725 L19.9560024,16.0523077 C19.4902588,16.8993449 18.9333998,17.6688976 18.2854086,18.360989 C17.6374175,19.0530804 16.9135007,19.6470305 16.1136367,20.1428571 C15.3137726,20.6386838 14.4481099,21.0208778 13.5166227,21.2894505 C12.5851354,21.5580233 11.623288,21.6923077 10.6310515,21.6923077 C9.17307145,21.6923077 7.79611093,21.4134094 6.50012865,20.8556044 C5.20414636,20.2977994 4.07524123,19.5334114 3.11337937,18.5624176 C2.15151752,17.5914237 1.39216429,16.4448418 0.835296905,15.1226374 C0.278429517,13.8004329 0,12.3749527 0,10.8461538 C0,9.35867388 0.263242453,7.95385276 0.789735256,6.63164835 C1.31622806,5.30944394 2.0401448,4.15769721 2.96150721,3.17637363 C3.88286962,2.19505004 4.97633827,1.42033251 6.24194597,0.852197802 C7.50755367,0.284063093 8.86932712,0 10.3273072,0 C11.4612917,0 12.4433885,0.113625237 13.2736272,0.340879121 C14.1038658,0.568133004 14.8024708,0.82637218 15.3694631,1.1156044 C16.0377039,1.4461555 16.594563,1.80769035 17.0400569,2.20021978 L13.3647505,7.53032967 Z M13.6684948,3.53274725 C13.4052484,3.40879059 13.1116318,3.30549492 12.7876363,3.22285714 C12.5041401,3.14021937 12.1700247,3.0679124 11.78528,3.00593407 C11.4005352,2.94395573 10.9752974,2.91296703 10.5095538,2.91296703 C9.43631846,2.91296703 8.4339722,3.10922881 7.50248493,3.50175824 C6.57099767,3.89428768 5.76102089,4.43658995 5.0725303,5.12868132 C4.38403971,5.82077269 3.84236774,6.65230284 3.44749814,7.6232967 C3.05262853,8.59429057 2.8551967,9.66856554 2.8551967,10.8461538 C2.8551967,12.0237422 3.05769089,13.0980171 3.46268535,14.069011 C3.86767982,15.0400049 4.42453885,15.871535 5.13327916,16.5636264 C5.84201948,17.2557177 6.66718332,17.79802 7.60879545,18.1905495 C8.55040758,18.5830789 9.55781619,18.7793407 10.6310515,18.7793407 C12.0282824,18.7793407 13.2938711,18.4436297 14.4278556,17.7721978 C15.5618401,17.1007659 16.4831887,16.2072583 17.191929,15.0916484 L17.191929,11.0320879 L13.9722391,11.0320879 L13.9722391,11.7758242 L16.4021938,11.7758242 L16.4021938,14.8747253 C15.7744524,15.8250597 14.9594132,16.5791181 13.9570519,17.1369231 C12.9546906,17.6947281 11.8460349,17.9736264 10.6310515,17.9736264 C9.65906481,17.9736264 8.75290329,17.8031885 7.91253978,17.4623077 C7.07217626,17.1214269 6.33307245,16.6359372 5.69520617,16.0058242 C5.05733989,15.3757111 4.55616676,14.6216527 4.19167174,13.7436264 C3.82717673,12.8656 3.64493195,11.8997855 3.64493195,10.8461538 C3.64493195,9.7925222 3.82211437,8.82670769 4.17648453,7.94868132 C4.53085468,7.07065495 5.01684075,6.31659656 5.63445731,5.68648352 C6.25207387,5.05637048 6.97599061,4.57088083 7.80622926,4.23 C8.63646791,3.88911917 9.53756708,3.71868132 10.5095538,3.71868132 C10.8740488,3.71868132 11.2182889,3.74967002 11.5422845,3.81164835 C11.8662801,3.87362668 12.149772,3.93560409 12.3927686,3.99758242 C12.6762648,4.08022019 12.9395072,4.16285673 13.1825039,4.24549451 L13.6684948,3.53274725 Z M21.2013542,8.76369231 L25.3201273,8.76369231 L25.3201273,21.1654945 L21.2013542,21.1654945 L21.2013542,8.76369231 Z M26.5958535,8.76369231 L30.6417279,8.76369231 L30.6417279,17.9116484 L33.9950653,17.9116484 L33.9950653,21.1654945 L26.5958535,21.1654945 L26.5958535,8.76369231 Z M34.6329284,8.76369231 L41.7952197,8.76369231 L41.7952197,12.0175385 L38.5147809,12.0175385 L38.5147809,13.3934505 L41.7405457,13.3934505 L41.7405457,16.479956 L38.5147809,16.479956 L38.5147809,17.9116484 L41.9227923,17.9116484 L41.9227923,21.1654945 L34.6329284,21.1654945 L34.6329284,8.76369231 Z M42.688228,17.3166593 C42.9555244,17.403429 43.2349664,17.4716041 43.5265624,17.5211868 C43.7695591,17.5831651 44.0459636,17.6327471 44.3557844,17.6699341 C44.6656052,17.7071211 44.9784587,17.7257143 45.2943544,17.7257143 C45.8532467,17.7257143 46.1326887,17.5149911 46.1326887,17.0935385 C46.1326887,16.9323948 46.0476412,16.7681547 45.8775435,16.6008132 C45.7074458,16.4334717 45.4917895,16.2475395 45.2305681,16.043011 C44.9693466,15.8384825 44.6899047,15.612265 44.3922337,15.3643516 C44.0945628,15.1164383 43.8151208,14.8313423 43.5538994,14.5090549 C43.2926779,14.1867676 43.0770216,13.8241998 42.906924,13.4213407 C42.7368263,13.0184815 42.6517787,12.5567499 42.6517787,12.0361319 C42.6517787,11.4535355 42.7550508,10.9391231 42.9615979,10.4928791 C43.1681451,10.0466351 43.4536619,9.67477072 43.8181569,9.37727473 C44.182652,9.07977873 44.6109272,8.85356121 45.1029955,8.69861538 C45.5950637,8.54366955 46.1205362,8.4661978 46.6794285,8.4661978 C46.9710245,8.4661978 47.2626162,8.48169215 47.5542122,8.51268132 C47.8458082,8.54367048 48.1070257,8.57156032 48.3378726,8.59635165 C48.6051689,8.63353865 48.8663864,8.67072509 49.1215329,8.70791209 L49.1215329,12.1848791 C49.0243343,12.1724835 48.9149874,12.160088 48.7934891,12.1476923 C48.6962904,12.1352966 48.5869435,12.1229012 48.4654452,12.1105055 C48.3439468,12.0981098 48.2163755,12.0919121 48.0827273,12.0919121 C48.0098283,12.0919121 47.9187059,12.095011 47.8093574,12.1012088 C47.7000089,12.1074066 47.5967369,12.122901 47.4995382,12.1476923 C47.4023395,12.1724836 47.317292,12.2158678 47.244393,12.2778462 C47.171494,12.3398245 47.135045,12.4265928 47.135045,12.5381538 C47.135045,12.6373192 47.2170552,12.761274 47.3810779,12.910022 C47.5451007,13.05877 47.7455699,13.2323067 47.9824917,13.4306374 C48.2194135,13.628968 48.480631,13.8582844 48.7661521,14.1185934 C49.0516732,14.3789024 49.3128907,14.6763939 49.5498124,15.0110769 C49.7867342,15.3457599 49.9872034,15.7238221 50.1512262,16.1452747 C50.315249,16.5667274 50.3972591,17.0377556 50.3972591,17.5583736 C50.3972591,18.1037829 50.3122115,18.6150965 50.1421139,19.0923297 C49.9720162,19.5695628 49.7077613,19.9848114 49.3493412,20.3380879 C48.9909211,20.6913644 48.5322717,20.9702627 47.9733794,21.1747912 C47.414487,21.3793197 46.752331,21.4815824 45.9868914,21.4815824 C45.5251978,21.4815824 45.0969225,21.4598903 44.7020529,21.4165055 C44.3071833,21.3731207 43.9578808,21.3204399 43.654135,21.2584615 C43.3017898,21.1964832 42.979824,21.1221103 42.688228,21.0353407 L42.688228,17.3166593 Z M53.616949,0.495824176 L60.4815708,0.495824176 L62.8204022,7.71626374 L65.1592335,0.495824176 L69.5939007,0.495824176 L71.9327321,7.71626374 L74.2715634,0.495824176 L81.1361852,0.495824176 L74.45381,21.1654945 L69.4116541,21.1654945 L67.3765671,14.9057143 L65.3414801,21.1654945 L60.2993242,21.1654945 L53.616949,0.495824176 Z M63.3367675,18.6863736 L67.3765671,5.70197802 L71.4163667,18.6863736 L72.1757275,18.6863736 L77.2482578,2.97494505 L76.4281481,2.97494505 L71.8112343,17.2608791 L67.3765671,2.97494505 L62.9418999,17.2608791 L58.3249861,2.97494505 L57.5048764,2.97494505 L62.5774067,18.6863736 L63.3367675,18.6863736 Z M81.1665597,8.76369231 L85.2853328,8.76369231 L85.2853328,21.1654945 L81.1665597,21.1654945 L81.1665597,8.76369231 Z M86.561059,8.76369231 L90.6069334,8.76369231 L90.6069334,17.9116484 L93.9602708,17.9116484 L93.9602708,21.1654945 L86.561059,21.1654945 L86.561059,8.76369231 Z M94.5981339,8.76369231 L97.805674,8.76369231 L100.976765,13.5236044 L104.129631,8.76369231 L107.337171,8.76369231 L107.337171,21.1654945 L103.455319,21.1654945 L103.455319,16.7030769 L100.976765,20.4217582 L98.4799864,16.7030769 L98.4799864,21.1654945 L94.5981339,21.1654945 L94.5981339,8.76369231 Z M108.339527,14.9738901 C108.339527,14.0814021 108.506585,13.2385095 108.840706,12.4451868 C109.174826,11.6518642 109.630438,10.9608161 110.207555,10.372022 C110.784672,9.78322783 111.462015,9.31839731 112.239605,8.97751648 C113.017194,8.63663566 113.84337,8.4661978 114.718158,8.4661978 C115.592946,8.4661978 116.419123,8.63663566 117.196712,8.97751648 C117.974301,9.31839731 118.651644,9.78322783 119.228762,10.372022 C119.805879,10.9608161 120.261491,11.6518642 120.595611,12.4451868 C120.929731,13.2385095 121.096789,14.0814021 121.096789,14.9738901 C121.096789,15.8663781 120.929731,16.7092708 120.595611,17.5025934 C120.261491,18.2959161 119.805879,18.9869641 119.228762,19.5757582 C118.651644,20.1645524 117.974301,20.6293829 117.196712,20.9702637 C116.419123,21.3111446 115.592946,21.4815824 114.718158,21.4815824 C113.84337,21.4815824 113.017194,21.3111446 112.239605,20.9702637 C111.462015,20.6293829 110.784672,20.1645524 110.207555,19.5757582 C109.630438,18.9869641 109.174826,18.2959161 108.840706,17.5025934 C108.506585,16.7092708 108.339527,15.8663781 108.339527,14.9738901 Z M112.166706,14.9738901 C112.166706,15.3333644 112.233529,15.6711413 112.367177,15.9872308 C112.500825,16.3033203 112.68307,16.5791197 112.913917,16.8146374 C113.144764,17.050155 113.415094,17.2360872 113.724914,17.3724396 C114.034735,17.5087919 114.365813,17.576967 114.718158,17.576967 C115.070503,17.576967 115.401581,17.5087919 115.711402,17.3724396 C116.021223,17.2360872 116.291553,17.050155 116.5224,16.8146374 C116.753246,16.5791197 116.935491,16.3033203 117.069139,15.9872308 C117.202788,15.6711413 117.269611,15.3333644 117.269611,14.9738901 C117.269611,14.6144158 117.202788,14.2766389 117.069139,13.9605495 C116.935491,13.64446 116.753246,13.3686605 116.5224,13.1331429 C116.291553,12.8976252 116.021223,12.711693 115.711402,12.5753407 C115.401581,12.4389883 115.070503,12.3708132 114.718158,12.3708132 C114.365813,12.3708132 114.034735,12.4389883 113.724914,12.5753407 C113.415094,12.711693 113.144764,12.8976252 112.913917,13.1331429 C112.68307,13.3686605 112.500825,13.64446 112.367177,13.9605495 C112.233529,14.2766389 112.166706,14.6144158 112.166706,14.9738901 Z M122.099145,8.76369231 L126.290817,8.76369231 C127.068407,8.76369231 127.788273,8.86905389 128.450439,9.07978022 C129.112605,9.29050655 129.686676,9.60039356 130.17267,10.0094505 C130.658663,10.4185075 131.03834,10.9236234 131.311711,11.5248132 C131.585082,12.126003 131.721766,12.817051 131.721766,13.597978 C131.721766,14.2177613 131.636718,14.7445693 131.466621,15.1784176 C131.296523,15.6122659 131.108203,15.9717348 130.901656,16.2568352 C130.658659,16.5791225 130.385292,16.8518231 130.081546,17.0749451 L132.359629,21.1654945 L127.803464,21.1654945 L125.980998,18.0232088 L125.980998,21.1654945 L122.099145,21.1654945 L122.099145,8.76369231 Z M125.980998,14.8623297 L126.181469,14.8623297 C126.643163,14.8623297 127.034989,14.7569681 127.35696,14.5462418 C127.67893,14.3355154 127.839913,13.9822442 127.839913,13.4864176 C127.839913,12.9905909 127.67893,12.6373197 127.35696,12.4265934 C127.034989,12.2158671 126.643163,12.1105055 126.181469,12.1105055 L125.980998,12.1105055 L125.980998,14.8623297 Z M132.724122,8.76369231 L139.886413,8.76369231 L139.886413,12.0175385 L136.605975,12.0175385 L136.605975,13.3934505 L139.831739,13.3934505 L139.831739,16.479956 L136.605975,16.479956 L136.605975,17.9116484 L140.013986,17.9116484 L140.013986,21.1654945 L132.724122,21.1654945 L132.724122,8.76369231 Z" id="Giles-Wilmore"></path>
            <path d="M104.517483,26.6223776 L107.51442,26.6223776 L107.51442,41.3922382 C107.51442,43.5431037 107.724599,44.9860366 108.144963,45.72108 C108.565328,46.4561235 109.220592,47.0160308 110.110776,47.4008187 C111.00096,47.7856066 111.994984,47.9779976 113.092877,47.9779976 C114.151207,47.9779976 115.088358,47.7856066 115.90436,47.4008187 C116.720362,47.0160308 117.328645,46.4067925 117.729228,45.5730855 C118.129811,44.7393784 118.330099,42.9955262 118.330099,40.3414765 L118.330099,26.6223776 L121.089655,26.6223776 L121.089655,41.1110484 C121.089655,43.7946972 120.780568,45.6791428 120.162385,46.7644419 C119.544202,47.8497411 118.651558,48.7081011 117.484429,49.3395479 C116.317299,49.9709946 114.848517,50.2867133 113.078041,50.2867133 C111.436146,50.2867133 109.932747,50.035125 108.567799,49.5319409 C107.20285,49.0287567 106.186572,48.2468598 105.518934,47.1862265 C104.851296,46.1255933 104.517483,44.327477 104.517483,41.7918236 L104.517483,26.6223776 Z M126.415895,49.5911387 L123.389285,49.5911387 L130.762937,37.9291646 L123.967902,26.6223776 L127.246729,26.6223776 L132.454278,35.2948609 L137.988226,26.6223776 L140.970327,26.6223776 L133.908238,37.6923733 L141,49.5911387 L137.780518,49.5911387 L132.231733,40.3414765 L126.415895,49.5911387 Z" id="UX"></path>
        </g>
    </g>
</svg>