<?xml version="1.0" encoding="UTF-8" standalone="no"?>
<svg width="51px" height="51px" viewBox="0 0 51 51" version="1.1" xmlns="http://www.w3.org/2000/svg" xmlns:xlink="http://www.w3.org/1999/xlink">
    <!-- Generator: Sketch 50.2 (55047) - http://www.bohemiancoding.com/sketch -->
    <title>Logo</title>
    <desc>Created with Sketch.</desc>
    <defs></defs>
    <g id="Logo" stroke="none" stroke-width="1" fill="none" fill-rule="evenodd">
        <g id="Group">
            <circle id="Oval-2" stroke="#467BC4" cx="25.5" cy="25.5" r="25"></circle>
            <path d="M6.99419926,14.0567409 C6.70460855,14.4122026 6.55981536,14.8480149 6.55981536,15.3641908 C6.55981536,15.8803666 6.723798,16.3180696 7.05176821,16.6773129 C7.37973841,17.0365562 7.77922804,17.2161751 8.25024908,17.2161751 C8.65497827,17.2161751 8.99166604,17.1556719 9.26032248,17.0346637 L9.26032248,15.3670269 L9.51153245,15.3670269 L9.51153245,17.1594528 C9.20798556,17.3636542 8.78320073,17.4657534 8.23716523,17.4657534 C7.69112973,17.4657534 7.22971048,17.2625004 6.85289365,16.8559883 C6.47607682,16.4494762 6.28767123,15.9522153 6.28767123,15.3641908 C6.28767123,14.7761663 6.45863186,14.2807961 6.80055824,13.8780655 C7.14248463,13.4753349 7.58035317,13.2739726 8.11417702,13.2739726 C8.53286239,13.2739726 8.95677496,13.3496016 9.38592747,13.500862 L9.31789143,13.7277513 C8.89920607,13.591617 8.49797194,13.5235509 8.11417702,13.5235509 C7.65711216,13.5235509 7.28378997,13.7012791 6.99419926,14.0567409 Z M10.7466481,17.3976866 L10.7466481,13.7164068 L10.987391,13.7164068 L10.987391,17.3976866 L10.7466481,17.3976866 Z M12.2434408,17.3976866 L12.2434408,13.7164068 L12.4841837,13.7164068 L12.4841837,17.1594528 L14.0437789,17.1594528 L14.0437789,17.3976866 L12.2434408,17.3976866 Z M14.7555405,17.3976866 L14.7555405,13.7164068 L16.3413034,13.7164068 L16.3413034,13.9432962 L14.9962833,13.9432962 L14.9962833,15.2819434 L16.2104648,15.2819434 L16.2104648,15.5031605 L14.9962833,15.5031605 L14.9962833,17.1594528 L16.3936388,17.1594528 L16.3936388,17.3976866 L14.7555405,17.3976866 Z M18.0422042,13.8752294 C17.8537958,13.8752294 17.7002801,13.9243883 17.5816526,14.0227075 C17.463025,14.1210267 17.4037122,14.2590497 17.4037122,14.4367805 C17.4037122,14.640982 17.4822145,14.8243824 17.6392215,14.9869872 C17.7508709,15.104214 17.8947919,15.2280565 18.0709886,15.3585185 C18.2471854,15.4889806 18.3684279,15.5825715 18.4347197,15.6392941 C18.5010116,15.6960167 18.5812584,15.7735365 18.6754626,15.8718557 C18.8464258,16.0571496 18.9319061,16.2708016 18.9319061,16.5128181 C18.9319061,16.8266833 18.8350866,17.0639694 18.6414446,17.2246835 C18.4478026,17.3853976 18.1774057,17.4657534 17.8302458,17.4657534 C17.4830858,17.4657534 17.1926272,17.3674357 16.9588612,17.1707973 L17.0844662,16.9722691 C17.3217212,17.1462185 17.5729287,17.2331918 17.8380961,17.2331918 C18.1032635,17.2331918 18.3099863,17.1726886 18.4582707,17.0516804 C18.6065551,16.9306721 18.6806962,16.7605068 18.6806962,16.5411793 C18.6806962,16.3521039 18.6056828,16.1781571 18.4556539,16.0193338 C18.3509826,15.9058885 18.2105506,15.7829914 18.0343539,15.6506386 C17.8581571,15.5182858 17.7351701,15.4228042 17.6653892,15.3641908 C17.5956083,15.3055774 17.513617,15.2271123 17.4194128,15.1287931 C17.2414715,14.9359362 17.1525022,14.7128305 17.1525022,14.4594695 C17.1525022,14.2061084 17.2353658,14.0075822 17.4010954,13.8638849 C17.566825,13.7201876 17.7962263,13.64834 18.089306,13.64834 C18.3823858,13.64834 18.6458047,13.710734 18.8795707,13.8355238 L18.7906005,14.0453964 C18.5742797,13.9319512 18.3248168,13.8752294 18.0422042,13.8752294 Z M22.80996,16.4163902 L23.8933029,13.4214507 L24.0450756,13.4214507 L24.9923465,16.4390791 C25.0656165,16.6773141 25.1144624,16.8493701 25.1388857,16.9552524 C25.166798,16.8304626 25.2156439,16.6602973 25.2854248,16.4447513 L26.2483964,13.3420394 L26.5100734,13.3420394 L25.2069217,17.43172 L25.0603826,17.43172 L24.0921775,14.4254361 C24.0782213,14.3762765 24.0633931,14.3271176 24.0476924,14.277958 C24.0319917,14.2287984 24.018908,14.1853117 24.0084408,14.1474966 C23.9979737,14.1096815 23.9875067,14.0775392 23.9770396,14.0510686 L23.9561054,13.9830018 C23.9526164,13.9640943 23.9508719,13.9527499 23.9508719,13.9489684 C23.9090033,14.0851027 23.854924,14.242033 23.7886321,14.4197638 L22.6948221,17.43172 L22.5482829,17.43172 L21.2346641,13.3420394 L21.5120418,13.3420394 L22.4697798,16.3937012 C22.5151374,16.5298355 22.552644,16.6527327 22.5823009,16.7623964 C22.6119578,16.8720602 22.6285305,16.9325634 22.6320196,16.9439079 C22.6494648,16.8569332 22.7087777,16.6810957 22.80996,16.4163902 Z M27.221835,17.3976866 L27.221835,13.7164068 L27.4625779,13.7164068 L27.4625779,17.3976866 L27.221835,17.3976866 Z M28.7186277,17.3976866 L28.7186277,13.7164068 L28.9593706,13.7164068 L28.9593706,17.1594528 L30.5189658,17.1594528 L30.5189658,17.3976866 L28.7186277,17.3976866 Z M31.549972,14.244083 C31.5499039,14.2482572 31.5472876,14.2690024 31.542123,14.3063192 C31.5368894,14.3441342 31.5307837,14.3942385 31.5238056,14.4566334 C31.5168275,14.5190282 31.5098495,14.5710232 31.5028715,14.6126198 L31.1103559,17.3976866 L30.8748465,17.3976866 L31.4296019,13.6937179 L31.5709075,13.6937179 L32.6280828,16.4107179 C32.7118198,16.6376084 32.7536877,16.7567241 32.7536877,16.7680687 C32.778111,16.688657 32.8252124,16.571432 32.8949933,16.4163902 L34.07254,13.6937179 L34.2138457,13.6937179 L34.7319662,17.3976866 L34.4807562,17.3976866 L34.1091748,14.6012753 C34.0847515,14.4159814 34.07254,14.2930843 34.07254,14.2325801 L33.9207674,14.6069476 L32.8060231,17.2048307 L32.6647175,17.2048307 L31.6755783,14.6012753 C31.63371,14.4991752 31.5918424,14.3800604 31.5499741,14.2439271 L31.549972,14.244083 Z M35.9147465,16.9042023 C35.5867763,16.537396 35.4227936,16.0883486 35.4227936,15.5570467 C35.4227936,15.0257448 35.5867763,14.5766975 35.9147465,14.2098912 C36.2427167,13.8430849 36.6491843,13.6596845 37.1341615,13.6596845 C37.6191387,13.6596845 38.0256063,13.8430849 38.3535765,14.2098912 C38.6815467,14.5766975 38.8455294,15.0257448 38.8455294,15.5570467 C38.8455294,16.0883486 38.6815467,16.537396 38.3535765,16.9042023 C38.0256063,17.2710086 37.6191387,17.454409 37.1341615,17.454409 C36.6491843,17.454409 36.2427167,17.2710086 35.9147465,16.9042023 Z M36.0900701,14.374386 C35.812691,14.6958142 35.6740036,15.0900305 35.6740036,15.5570467 C35.6740036,16.024063 35.812691,16.4173339 36.0900701,16.7368714 C36.3674491,17.0564088 36.7163484,17.2161751 37.1367783,17.2161751 C37.5572082,17.2161751 37.9052351,17.0564088 38.1808697,16.7368714 C38.4565042,16.4173339 38.5943194,16.024063 38.5943194,15.5570467 C38.5943194,15.0900305 38.4565042,14.6958142 38.1808697,14.374386 C37.9052351,14.0529578 37.5572082,13.8922461 37.1367783,13.8922461 C36.7163484,13.8922461 36.3674491,14.0529578 36.0900701,14.374386 Z M39.8922376,17.3976866 L39.8922376,13.7334235 C40.1922954,13.706953 40.4469919,13.6937179 40.6563345,13.6937179 C40.9773267,13.6937179 41.2424901,13.7835274 41.4518328,13.963149 C41.6611754,14.1427707 41.7658452,14.398964 41.7658452,14.7317367 C41.7658452,14.9548457 41.7065324,15.1609348 41.5879048,15.3500102 C41.4692773,15.5390856 41.3349511,15.6922344 41.1849222,15.8094611 C41.6001185,16.4069394 41.8565594,16.7642866 41.9542527,16.8815133 C42.1531282,17.1046223 42.3694458,17.2313009 42.6032118,17.261553 L42.5979782,17.4373923 C42.4025917,17.4336107 42.2438426,17.4024138 42.121726,17.3438004 C41.9996094,17.285187 41.878367,17.1859239 41.7579949,17.0460081 C41.6376229,16.9060923 41.3733317,16.5298379 40.9651135,15.9172336 C40.6825008,15.9172336 40.4051259,15.90778 40.1329805,15.8888724 L40.1329805,17.3976866 L39.8922376,17.3976866 Z M40.8342749,15.7016887 C40.9703477,15.7016887 41.1168854,15.603371 41.2738924,15.4067325 C41.4308994,15.2100941 41.5094017,14.9813163 41.5094017,14.7203922 C41.5094017,14.4594682 41.4274104,14.260942 41.2634253,14.1248077 C41.0994402,13.9886734 40.8866117,13.9206073 40.6249333,13.9206073 C40.4853715,13.9206073 40.3213889,13.9281702 40.1329805,13.9432962 L40.1329805,15.6733275 C40.3841917,15.6922351 40.6179542,15.7016887 40.8342749,15.7016887 Z M43.0742305,17.3976866 L43.0742305,13.7164068 L44.6599934,13.7164068 L44.6599934,13.9432962 L43.3149733,13.9432962 L43.3149733,15.2819434 L44.5291548,15.2819434 L44.5291548,15.5031605 L43.3149733,15.5031605 L43.3149733,17.1594528 L44.7123288,17.1594528 L44.7123288,17.3976866 L43.0742305,17.3976866 Z" id="Giles-Wilmore" fill="#000000"></path>
            <path d="M16.4041677,41.2191781 C15.1836346,41.2191781 14.0793593,41.0612048 13.0913087,40.7452535 C12.1032581,40.4293023 11.2605217,39.9553825 10.5630742,39.3234799 C9.86562667,38.6915774 9.32801896,37.8918377 8.9502349,36.924237 C8.57245084,35.9566362 8.38356164,34.8212033 8.38356164,33.5179043 L8.38356164,20.9589041 L14.5733772,20.9589041 L14.5733772,33.2513218 C14.5733772,33.9424652 14.7138333,34.4706883 14.9947496,34.836007 C15.275666,35.2013256 15.7454673,35.3839822 16.4041677,35.3839822 C17.0628681,35.3839822 17.5326695,35.2013256 17.8135858,34.836007 C18.0945022,34.4706883 18.2349583,33.9424652 18.2349583,33.2513218 L18.2349583,20.9589041 L24.453834,20.9589041 L24.453834,33.5179043 C24.453834,34.8212033 24.2649448,35.9566362 23.8871607,36.924237 C23.5093767,37.8918377 22.9669256,38.6915774 22.2597914,39.3234799 C21.5526571,39.9553825 20.7050774,40.4293023 19.7170268,40.7452535 C18.7289762,41.0612048 17.6247008,41.2191781 16.4041677,41.2191781 Z M16.4041677,37.6647441 C13.4981365,37.6647441 12.0451427,36.2133647 12.0451427,33.3105624 L12.0451427,23.3285268 L11.2895783,23.3285268 L11.2895783,33.3105624 C11.2895783,34.9693065 11.7303198,36.2380293 12.6118159,37.1167688 C13.4933121,37.9955083 14.7574167,38.4348714 16.4041677,38.4348714 C18.0509188,38.4348714 19.3198667,37.9955083 20.2110496,37.1167688 C21.1022325,36.2380293 21.5478173,34.9693065 21.5478173,33.3105624 L21.5478173,23.3285268 L20.7631928,23.3285268 L20.7631928,33.3105624 C20.7631928,36.2133647 19.310199,37.6647441 16.4041677,37.6647441 Z M33.6949671,31.2963831 L37.501849,38.3460106 L38.373654,38.3460106 L34.1308696,30.4966354 L37.9958718,23.3285268 L37.1240668,23.3285268 L33.6949671,29.6968878 L30.2658674,23.3285268 L29.3940624,23.3285268 L33.2590646,30.4966354 L29.0162802,38.3460106 L29.8880852,38.3460106 L33.6949671,31.2963831 Z M30.3239877,30.4966354 L25.1803382,20.9589041 L31.9513571,20.9589041 L33.6949671,24.187515 L35.4385771,20.9589041 L42.2386562,20.9589041 L37.0950066,30.4966354 L42.6164384,40.7156333 L35.8454194,40.7156333 L33.6949671,36.7761355 L31.5735749,40.7156333 L24.802556,40.7156333 L30.3239877,30.4966354 Z" id="UX" fill="#000000"></path>
            <path d="M6.8,30.390411 L1.39726027,30.390411" id="Path-2" stroke="#317DC8"></path>
            <path d="M28.4691781,30.390411 L25.3253425,30.390411" id="Path-2-Copy-2" stroke="#317DC8"></path>
            <path d="M49.4280822,30.390411 L39.2979452,30.390411" id="Path-2-Copy-3" stroke="#317DC8"></path>
        </g>
    </g>
</svg>