<?xml version="1.0" encoding="UTF-8"?>
<svg width="85px" height="168px" viewBox="0 0 85 168" version="1.1" xmlns="http://www.w3.org/2000/svg" xmlns:xlink="http://www.w3.org/1999/xlink">
    <!-- Generator: Sketch 53 (72520) - https://sketchapp.com -->
    <title>nexus</title>
    <desc>Created with Sketch.</desc>
    <defs>
        <rect id="path-1" x="0" y="0" width="69" height="127"></rect>
        <rect id="path-3" x="0" y="0" width="69" height="127"></rect>
    </defs>
    <g id="Page-1" stroke="none" stroke-width="1" fill="none" fill-rule="evenodd">
        <g id="Illo_Exploration" transform="translate(-1234.000000, -384.000000)">
            <g id="Group" transform="translate(270.000000, 227.000000)">
                <g id="nexus" transform="translate(966.000000, 159.000000)">
                    <path d="M1.13686838e-13,154.9 L1.13686838e-13,9.6 C1.13686838e-13,6.3 2.6,3.2 5.9,2.8 C13.2,1.9 26.5,0.5 40.6,0.5 C54.6,0.5 67.8,1.9 75.2,2.8 C78.5,3.2 81,6.3 81,9.6 L81,154.9 C81,157.1 79.4,159.9 77.3,160.4 C71.7,161.8 59.7,163.7 40.6,163.7 C21.5,163.7 9.5,161.8 3.9,160.4 C1.7,159.9 1.13686838e-13,157.1 1.13686838e-13,154.9 L1.13686838e-13,154.9 Z" id="phone_2_" stroke="#1485E0" stroke-width="4" fill="#FFFFFF"></path>
                    <g id="XMLID_498_" transform="translate(37.000000, 5.000000)" fill="#1485E0">
                        <path d="M3,2.4 C3.6,2.4 4,2.8 4,3.4 C4,4 3.6,4.4 3,4.4 C2.4,4.4 2,4 2,3.4 C2,2.8 2.4,2.4 3,2.4 L3,2.4 Z M3,0.4 C1.3,0.4 0,1.7 0,3.4 C0,5.1 1.3,6.4 3,6.4 C4.7,6.4 6,5.1 6,3.4 C6,1.7 4.7,0.4 3,0.4 L3,0.4 L3,0.4 Z" id="XMLID_483_"></path>
                    </g>
                    <g id="XMLID_486_" transform="translate(12.000000, 6.000000)" fill="#1485E0">
                        <path d="M2,1.7 C2.4,1.7 2.7,2 2.7,2.4 C2.7,2.8 2.4,3.1 2,3.1 C1.6,3.1 1.3,2.8 1.3,2.4 C1.3,2 1.6,1.7 2,1.7 L2,1.7 Z M2,0.4 C0.9,0.4 0,1.3 0,2.4 C0,3.5 0.9,4.4 2,4.4 C3.1,4.4 4,3.5 4,2.4 C4,1.3 3.1,0.4 2,0.4 L2,0.4 L2,0.4 Z" id="XMLID_480_"></path>
                    </g>
                    <g id="XMLID_27_" transform="translate(6.000000, 15.000000)">
                        <g id="XMLID_29_-Clipped">
                            <mask id="mask-2" fill="white">
                                <use xlink:href="#path-1"></use>
                            </mask>
                            <g id="XMLID_28_"></g>
                            <g id="XMLID_29_" mask="url(#mask-2)">
                                <rect id="XMLID_503_" fill="#C4E1F7" x="1" y="1" width="67" height="125"></rect>
                                <path d="M67,2 L67,125 L2,125 L2,2 L67,2 L67,2 Z M69,0 L0,0 L0,127 L69,127 L69,0 L69,0 Z" id="XMLID_488_" fill="#1485E0"></path>
                            </g>
                        </g>
                        <g id="light_5_-Clipped">
                            <mask id="mask-4" fill="white">
                                <use xlink:href="#path-3"></use>
                            </mask>
                            <g id="XMLID_28_"></g>
                            <polygon id="light_5_" fill="#FFFFFF" opacity="0.44" mask="url(#mask-4)" points="15 128 -104 128 -104 -46 79 -46"></polygon>
                        </g>
                    </g>
                </g>
            </g>
        </g>
    </g>
</svg>