<?xml version="1.0" encoding="UTF-8"?>
<svg width="66px" height="209px" viewBox="0 0 66 209" version="1.1" xmlns="http://www.w3.org/2000/svg" xmlns:xlink="http://www.w3.org/1999/xlink">
    <!-- Generator: Sketch 53 (72520) - https://sketchapp.com -->
    <title>pencil</title>
    <desc>Created with Sketch.</desc>
    <g id="Page-1" stroke="none" stroke-width="1" fill="none" fill-rule="evenodd">
        <g id="Illo_Exploration" transform="translate(-480.000000, -566.000000)">
            <g id="Group" transform="translate(270.000000, 227.000000)">
                <g id="pencil" transform="translate(212.000000, 345.000000)">
                    <path d="M58.8,198.2 L53,199.8 C50.9,200.4 48.5,200.1 48,198 L0.6,21.2 L2.2,0.1 L14.1,17.6 L61.5,194.4 C62.1,196.4 60.9,197.6 58.8,198.2 L58.8,198.2 Z" id="XMLID_15_" fill="#C4E1F7"></path>
                    <rect id="XMLID_14_" stroke="#1485E0" stroke-width="1.99994025" fill="#FFFFFF" transform="translate(49.977740, 178.278370) rotate(-14.999329) translate(-49.977740, -178.278370) " x="42.9779491" y="173.778504" width="13.9995817" height="8.99973112"></rect>
                    <path d="M5.7,20.9 L46.6,173.5" id="XMLID_13_" stroke="#1485E0" stroke-width="2"></path>
                    <path d="M9.6,19.8 L50.5,172.4" id="XMLID_12_" stroke="#1485E0" stroke-width="2"></path>
                    <path d="M2.5,20.7 L12.2,18.1" id="XMLID_11_" stroke="#1485E0" stroke-width="2"></path>
                    <polygon id="XMLID_10_" fill="#FFFFFF" points="0.7 20.1 2.8 0.9 14.3 16.5"></polygon>
                    <rect id="XMLID_9_" fill="#1485E0" transform="translate(4.279210, 7.787080) rotate(-14.999329) translate(-4.279210, -7.787080) " x="2.27926975" y="4.78716963" width="3.9998805" height="5.99982075"></rect>
                    <path d="M58.8,198.2 L53,199.8 C50.9,200.4 48.5,200.1 48,198 L0.6,21.2 L2.2,0.1 L14.1,17.6 L61.5,194.4 C62.1,196.4 60.9,197.6 58.8,198.2 L58.8,198.2 Z" id="XMLID_8_" stroke="#1485E0" stroke-width="4"></path>
                </g>
            </g>
        </g>
    </g>
</svg>